<?xml version="1.0" encoding="UTF-8" standalone="no"?>
<svg width="1515px" height="1091px" viewBox="0 0 1515 1091" version="1.1" xmlns="http://www.w3.org/2000/svg" xmlns:xlink="http://www.w3.org/1999/xlink" xmlns:sketch="http://www.bohemiancoding.com/sketch/ns">
    <!-- Generator: Sketch 3.3.3 (12081) - http://www.bohemiancoding.com/sketch -->
    <title>blue-diamond-logo</title>
    <desc>Created with Sketch.</desc>
    <defs>
        <path id="path-1" d="M0.06,0.04 L1514.23,0.04 L1514.23,1090.94 L0.06,1090.94 L0.06,0.04 Z"></path>
        <path id="path-3" d="M0.06,0.04 L1514.23,0.04 L1514.23,1090.94 L0.06,1090.94"></path>
    </defs>
    <g id="Page-1" stroke="none" stroke-width="1" fill="none" fill-rule="evenodd" sketch:type="MSPage">
        <g id="blue-diamond-logo" sketch:type="MSLayerGroup">
            <g id="Group-3">
                <mask id="mask-2" sketch:name="Clip 2" fill="white">
                    <use xlink:href="#path-1"></use>
                </mask>
                <g id="Clip-2"></g>
                <path d="M83.461,351.675 L97.459,339.685 C103.352,334.639 107.098,330.17 108.806,326.253 C110.499,322.319 109.574,318.244 105.953,314.058 C102.363,309.874 98.445,308.417 94.197,309.749 C89.95,311.065 84.418,314.639 77.615,320.47 L65.563,330.798 L83.461,351.675 L83.461,351.675 Z M51.911,314.857 L61.581,306.536 C67.24,301.708 70.922,297.461 72.678,293.887 C74.387,290.329 73.493,286.552 70.046,282.524 C66.612,278.479 63.101,276.929 59.403,277.837 C55.782,278.699 50.954,281.708 44.952,286.835 L35.125,295.282 L51.911,314.857 L51.911,314.857 Z M117.771,351.988 L77.709,386.298 L0,295.689 L35.611,265.142 C41.832,259.844 47.788,255.973 53.556,253.622 C59.308,251.192 64.418,250.283 68.823,250.879 C76.926,251.992 83.508,255.535 88.54,261.396 C94.621,268.48 96.831,275.736 95.154,283.182 C94.621,285.721 94.197,287.43 93.805,288.244 C93.476,289.059 92.818,290.502 91.831,292.539 C98.54,288.871 105.185,287.555 111.91,288.48 C118.524,289.483 124.322,292.821 129.213,298.541 C134.62,304.826 137.221,312.256 136.987,320.862 C136.721,330.83 130.341,341.19 117.771,351.988 L117.771,351.988 Z" id="Fill-1" fill="#204866" sketch:type="MSShapeGroup" mask="url(#mask-2)"></path>
            </g>
            <path d="M180.401,302.602 L114.449,203.121 L136.861,188.248 L189.712,267.947 L232.563,239.532 L245.698,259.327 L180.401,302.602" id="Fill-4" fill="#204866" sketch:type="MSShapeGroup"></path>
            <path d="M287.138,201.837 C293.597,204.831 300.211,204.611 307.029,201.24 C313.83,197.887 317.984,192.745 319.504,185.85 C321.04,178.891 319.661,171.163 315.413,162.589 L286.214,103.517 L310.32,91.558 L339.943,151.462 C347.607,166.947 349.189,181.039 344.614,193.623 C340.068,206.209 331.056,215.849 317.56,222.525 C304.066,229.187 290.87,230.52 278.032,226.445 C265.195,222.37 254.914,212.668 247.313,197.244 L217.72,137.403 L241.827,125.428 L271.074,184.549 C275.289,193.106 280.665,198.874 287.138,201.837" id="Fill-5" fill="#204866" sketch:type="MSShapeGroup"></path>
            <path d="M446.351,42.687 L453.89,65.226 L396.947,84.238 L404.753,107.56 L455.926,90.445 L463.136,111.996 L411.915,129.095 L419.784,152.574 L478.513,132.983 L485.973,155.317 L401.744,183.451 L363.86,70.257 L446.351,42.687" id="Fill-6" fill="#204866" sketch:type="MSShapeGroup"></path>
            <path d="M649.666,91.871 C655.481,84.975 657.661,75.727 656.25,64.081 C654.823,52.421 650.45,43.864 643.147,38.394 C635.734,32.971 625.309,31.027 611.706,32.719 L596.8,34.553 L605.655,106.542 L622.599,104.504 C634.824,103.031 643.868,98.831 649.666,91.871 M660.622,19.068 C673.333,28.018 680.795,41.67 683.035,60.085 C685.308,78.518 681.515,93.768 671.719,105.868 C661.907,117.999 645.575,125.428 622.77,128.25 L581.863,133.249 L567.303,14.758 L609.574,9.585 C630.936,6.969 647.943,10.118 660.622,19.068" id="Fill-7" fill="#204866" sketch:type="MSShapeGroup"></path>
            <path d="M726.06,0.526 L752.986,0.04 L754.914,119.441 L728.034,119.849 L726.06,0.526" id="Fill-8" fill="#204866" sketch:type="MSShapeGroup"></path>
            <path d="M855.836,40.4 L837.497,73.517 L867.56,76.323 L855.836,40.4 L855.836,40.4 Z M884.237,127.309 L875.522,100.57 L825.194,95.868 L811.637,120.491 L783.126,117.857 L846.134,3.818 L872.026,6.262 L912.809,129.957 L884.237,127.309 L884.237,127.309 Z" id="Fill-9" fill="#204866" sketch:type="MSShapeGroup"></path>
            <path d="M1062.63,88.846 L1014.66,143.829 L999.108,139.754 L984.171,68.455 L965.206,141.181 L939.172,134.409 L969.297,18.895 L1004.51,28.048 L1018.04,99.317 L1064.75,43.753 L1099.83,52.845 L1069.75,168.374 L1043.68,161.602 L1062.63,88.846" id="Fill-10" fill="#204866" sketch:type="MSShapeGroup"></path>
            <path d="M1218.25,166.226 C1222.6,156.54 1223.19,146.838 1219.99,137.152 C1216.84,127.481 1210.65,120.554 1201.44,116.416 C1192.28,112.295 1183,112.216 1173.63,116.243 C1164.24,120.271 1157.36,127.105 1152.99,136.823 C1148.62,146.525 1148.05,156.195 1151.28,165.803 C1154.49,175.458 1160.65,182.339 1169.87,186.492 C1179.02,190.662 1188.3,190.692 1197.66,186.759 C1207,182.762 1213.85,175.975 1218.25,166.226 M1208.52,210.018 C1192.58,215.754 1176.45,214.955 1160.26,207.62 C1143.96,200.301 1132.71,188.749 1126.46,172.998 C1120.2,157.245 1120.64,141.399 1127.88,125.398 C1135.08,109.41 1146.64,98.532 1162.63,92.796 C1178.57,87.106 1194.65,87.906 1210.92,95.226 C1227.17,102.544 1238.43,114.097 1244.68,129.832 C1250.98,145.599 1250.48,161.461 1243.3,177.448 C1236.09,193.435 1224.48,204.266 1208.52,210.018" id="Fill-11" fill="#204866" sketch:type="MSShapeGroup"></path>
            <g id="Group-15">
                <mask id="mask-4" sketch:name="Clip 13" fill="white">
                    <use xlink:href="#path-3"></use>
                </mask>
                <g id="Clip-13"></g>
                <path d="M1385.4,196.681 L1407.9,211.429 L1342.44,311.253 L1319.93,296.489 L1312.92,202.433 L1271.91,265.001 L1249.4,250.267 L1314.87,150.413 L1335.93,164.236 L1343.27,260.956 L1385.4,196.681" id="Fill-12" fill="#204866" sketch:type="MSShapeGroup" mask="url(#mask-4)"></path>
                <path d="M1451.88,361.44 C1460.93,361.267 1469.36,356.816 1477.16,348.101 C1484.96,339.388 1488.58,330.453 1487.85,321.332 C1487.17,312.225 1481.71,303.072 1471.51,293.95 L1460.35,283.935 L1411.88,337.977 L1424.6,349.371 C1433.78,357.585 1442.87,361.612 1451.88,361.44 M1513.97,321.77 C1515.53,337.224 1510.2,351.863 1497.79,365.672 C1485.39,379.48 1471.4,386.675 1455.87,387.254 C1440.3,387.834 1423.94,380.42 1406.82,365.077 L1376.15,337.569 L1455.83,248.685 L1487.56,277.133 C1503.56,291.473 1512.38,306.362 1513.97,321.77" id="Fill-14" fill="#204866" sketch:type="MSShapeGroup" mask="url(#mask-4)"></path>
            </g>
            <path d="M482.69,1044.49 L463.1,1000.09 L443.53,1044.49 L482.69,1044.49 L482.69,1044.49 Z M436.111,1061.28 L425.359,1085.79 L405.935,1085.79 L453.417,978.034 L472.801,978.034 L520.285,1085.79 L500.859,1085.79 L490.068,1061.28 L436.111,1061.28 L436.111,1061.28 Z" id="Fill-16" fill="#204866" sketch:type="MSShapeGroup"></path>
            <path d="M563.802,1055.61 L587.81,978.034 L604.153,978.034 L628.161,1055.61 L655.274,978.034 L674.863,978.034 L637.267,1085.79 L619.26,1085.79 L596.609,1011.93 L595.312,1011.93 L572.701,1085.79 L554.696,1085.79 L517.059,978.034 L536.647,978.034 L563.802,1055.61" id="Fill-17" fill="#204866" sketch:type="MSShapeGroup"></path>
            <path d="M748.433,1044.49 L728.822,1000.09 L709.273,1044.49 L748.433,1044.49 L748.433,1044.49 Z M701.854,1061.28 L691.062,1085.79 L671.636,1085.79 L719.12,978.034 L738.544,978.034 L785.986,1085.79 L766.602,1085.79 L755.81,1061.28 L701.854,1061.28 L701.854,1061.28 Z" id="Fill-18" fill="#204866" sketch:type="MSShapeGroup"></path>
            <path d="M862.783,1028.31 C866.484,1025.13 868.292,1019.99 868.292,1012.94 C868.292,1005.93 866.402,1001.1 862.598,998.509 C858.837,995.835 851.992,994.541 842.269,994.541 L819.124,994.541 L819.124,1033.08 L841.795,1033.08 C852.074,1033.08 859.062,1031.46 862.783,1028.31 M886.998,1013 C886.998,1030.82 879.187,1042.03 863.686,1046.63 L891.869,1085.79 L868.766,1085.79 L843.05,1049.59 L819.124,1049.59 L819.124,1085.79 L800.952,1085.79 L800.952,978.034 L841.057,978.034 C857.46,978.034 869.3,980.811 876.328,986.401 C883.401,991.931 886.998,1000.79 886.998,1013" id="Fill-19" fill="#204866" sketch:type="MSShapeGroup"></path>
            <path d="M991.933,1031.89 C991.933,1007.16 977.812,994.829 949.549,994.829 L931.357,994.829 L931.357,1068.66 L951.564,1068.66 C964.595,1068.66 974.585,1065.56 981.533,1059.35 C988.481,1053.15 991.933,1043.98 991.933,1031.89 M994.689,992.177 C1005.09,1001.55 1010.27,1014.64 1010.27,1031.4 C1010.27,1048.15 1005.23,1061.37 995.16,1071.17 C985.069,1080.9 969.651,1085.79 948.932,1085.79 L913.185,1085.79 L913.185,978.034 L950.145,978.034 C969.487,978.034 984.328,982.762 994.689,992.177" id="Fill-20" fill="#204866" sketch:type="MSShapeGroup"></path>
            <path d="M1066.3,992.238 C1061.04,992.238 1056.68,993.307 1053.27,995.507 C1049.9,997.645 1048.17,1000.85 1048.17,1005.23 C1048.17,1009.63 1049.9,1012.94 1053.27,1015.26 C1056.68,1017.6 1063.88,1020.03 1074.94,1022.74 C1086,1025.42 1094.28,1029.18 1099.89,1034.01 C1105.5,1038.84 1108.3,1045.97 1108.3,1055.34 C1108.3,1064.74 1104.76,1072.39 1097.69,1078.22 C1090.56,1084.08 1081.29,1087.04 1069.76,1087.04 C1052.92,1087.04 1037.94,1081.22 1024.95,1069.63 L1036.36,1055.86 C1047.23,1065.33 1058.53,1070.1 1070.19,1070.1 C1076.07,1070.1 1080.71,1068.79 1084.23,1066.28 C1087.62,1063.77 1089.31,1060.42 1089.31,1056.27 C1089.31,1052.1 1087.77,1048.83 1084.48,1046.57 C1081.25,1044.24 1075.68,1042.15 1067.76,1040.26 C1059.87,1038.36 1053.87,1036.62 1049.74,1035.02 C1045.63,1033.41 1041.97,1031.36 1038.8,1028.81 C1032.37,1023.89 1029.26,1016.53 1029.26,1006.59 C1029.26,996.597 1032.9,988.929 1040.1,983.545 C1047.35,978.116 1056.34,975.424 1067,975.424 C1073.87,975.424 1080.67,976.533 1087.5,978.836 C1094.28,981.078 1100.14,984.263 1105.07,988.394 L1095.35,1002.15 C1092.2,999.228 1087.85,996.865 1082.4,994.993 C1076.97,993.164 1071.61,992.238 1066.3,992.238" id="Fill-21" fill="#204866" sketch:type="MSShapeGroup"></path>
            <path d="M482.69,1045.45 L463.1,1001.05 L443.53,1045.45 L482.69,1045.45 L482.69,1045.45 Z M436.111,1062.24 L425.359,1086.75 L405.935,1086.75 L453.417,978.992 L472.801,978.992 L520.285,1086.75 L500.859,1086.75 L490.068,1062.24 L436.111,1062.24 L436.111,1062.24 Z M563.802,1056.57 L587.81,978.992 L604.153,978.992 L628.161,1056.57 L655.274,978.992 L674.863,978.992 L637.267,1086.75 L619.26,1086.75 L596.609,1012.89 L595.312,1012.89 L572.701,1086.75 L554.696,1086.75 L517.059,978.992 L536.647,978.992 L563.802,1056.57 L563.802,1056.57 Z M748.433,1045.45 L728.822,1001.05 L709.273,1045.45 L748.433,1045.45 L748.433,1045.45 Z M701.854,1062.24 L691.062,1086.75 L671.636,1086.75 L719.12,978.992 L738.544,978.992 L785.986,1086.75 L766.602,1086.75 L755.81,1062.24 L701.854,1062.24 L701.854,1062.24 Z M862.783,1029.27 C866.484,1026.09 868.292,1020.95 868.292,1013.9 C868.292,1006.89 866.402,1002.06 862.598,999.467 C858.837,996.793 851.992,995.499 842.269,995.499 L819.124,995.499 L819.124,1034.04 L841.795,1034.04 C852.074,1034.04 859.062,1032.42 862.783,1029.27 L862.783,1029.27 Z M886.998,1013.96 C886.998,1031.78 879.187,1042.98 863.686,1047.59 L891.869,1086.75 L868.766,1086.75 L843.05,1050.55 L819.124,1050.55 L819.124,1086.75 L800.952,1086.75 L800.952,978.992 L841.057,978.992 C857.46,978.992 869.3,981.769 876.328,987.359 C883.401,992.889 886.998,1001.75 886.998,1013.96 L886.998,1013.96 Z M991.933,1032.85 C991.933,1008.12 977.812,995.787 949.549,995.787 L931.357,995.787 L931.357,1069.62 L951.564,1069.62 C964.595,1069.62 974.585,1066.52 981.533,1060.31 C988.481,1054.1 991.933,1044.93 991.933,1032.85 L991.933,1032.85 Z M994.689,993.135 C1005.09,1002.51 1010.27,1015.6 1010.27,1032.36 C1010.27,1049.11 1005.23,1062.33 995.16,1072.13 C985.069,1081.85 969.651,1086.75 948.932,1086.75 L913.185,1086.75 L913.185,978.992 L950.145,978.992 C969.487,978.992 984.328,983.72 994.689,993.135 L994.689,993.135 Z M1066.3,993.196 C1061.04,993.196 1056.68,994.265 1053.27,996.465 C1049.9,998.604 1048.17,1001.81 1048.17,1006.19 C1048.17,1010.59 1049.9,1013.9 1053.27,1016.22 C1056.68,1018.56 1063.88,1020.99 1074.94,1023.7 C1086,1026.37 1094.28,1030.13 1099.89,1034.97 C1105.5,1039.8 1108.3,1046.93 1108.3,1056.3 C1108.3,1065.7 1104.76,1073.34 1097.69,1079.18 C1090.56,1085.04 1081.29,1088 1069.76,1088 C1052.92,1088 1037.94,1082.18 1024.95,1070.59 L1036.36,1056.82 C1047.23,1066.29 1058.53,1071.06 1070.19,1071.06 C1076.07,1071.06 1080.71,1069.75 1084.23,1067.24 C1087.62,1064.73 1089.31,1061.38 1089.31,1057.23 C1089.31,1053.06 1087.77,1049.79 1084.48,1047.53 C1081.25,1045.2 1075.68,1043.11 1067.76,1041.22 C1059.87,1039.32 1053.87,1037.58 1049.74,1035.97 C1045.63,1034.37 1041.97,1032.31 1038.8,1029.76 C1032.37,1024.85 1029.26,1017.49 1029.26,1007.55 C1029.26,997.555 1032.9,989.887 1040.1,984.503 C1047.35,979.074 1056.34,976.382 1067,976.382 C1073.87,976.382 1080.67,977.491 1087.5,979.794 C1094.28,982.036 1100.14,985.221 1105.07,989.353 L1095.35,1003.1 C1092.2,1000.19 1087.85,997.823 1082.4,995.951 C1076.97,994.122 1071.61,993.196 1066.3,993.196 L1066.3,993.196 Z" id="Stroke-22" stroke="#204866" stroke-width="6" sketch:type="MSShapeGroup"></path>
            <path d="M757.287,351.314 L675.269,474.288 L839.308,474.288 L757.287,351.314" id="Fill-24" fill="#204866" sketch:type="MSShapeGroup"></path>
            <path d="M757.287,749.986 L675.269,484.759 L839.308,484.759 L757.287,749.986" id="Fill-25" fill="#204866" sketch:type="MSShapeGroup"></path>
            <path d="M770.061,749.986 L852.112,484.759 L1028.86,484.759 L770.061,749.986" id="Fill-26" fill="#204866" sketch:type="MSShapeGroup"></path>
            <path d="M745.236,749.986 L663.247,484.759 L486.435,484.759 L745.236,749.986" id="Fill-27" fill="#204866" sketch:type="MSShapeGroup"></path>
            <path d="M947.031,351.314 L865.043,474.288 L1029.05,474.288 L947.031,351.314" id="Fill-28" fill="#204866" sketch:type="MSShapeGroup"></path>
            <path d="M568.421,351.314 L486.435,474.288 L650.442,474.288 L568.421,351.314" id="Fill-29" fill="#204866" sketch:type="MSShapeGroup"></path>
            <path d="M852.112,474.288 L934.1,351.314 L770.061,351.314 L852.112,474.288" id="Fill-30" fill="#204866" sketch:type="MSShapeGroup"></path>
            <path d="M663.09,474.288 L745.046,351.314 L581.056,351.314 L663.09,474.288" id="Fill-31" fill="#204866" sketch:type="MSShapeGroup"></path>
            <path d="M867.284,844.105 L646.758,844.105 L757.287,766.177 L867.284,844.105" id="Fill-32" fill="#204866" sketch:type="MSShapeGroup"></path>
            <path d="M935.48,666.008 L814.23,666.008 L814.23,642.184 L935.48,642.184 C981.952,642.184 1018.42,628.924 1043.74,602.875 C1074.35,571.402 1081.59,528.864 1083.27,508.614 L894.761,508.614 L894.761,484.759 L1107.32,484.759 L1107.69,496.373 C1107.76,499.352 1109.14,569.866 1060.88,619.52 C1030.84,650.397 988.707,666.008 935.48,666.008" id="Fill-33" fill="#204866" sketch:type="MSShapeGroup"></path>
            <path d="M700.017,666.008 L578.688,666.008 C525.57,666.008 483.377,650.397 453.316,619.52 C405.042,569.866 406.483,499.352 406.546,496.373 L406.875,484.759 L619.408,484.759 L619.408,508.614 L430.966,508.614 C432.689,528.942 440.024,571.7 470.603,603.031 C495.948,629.002 532.279,642.184 578.688,642.184 L700.017,642.184 L700.017,666.008" id="Fill-34" fill="#204866" sketch:type="MSShapeGroup"></path>
        </g>
    </g>
</svg>